<svg width="512px" height="512px" viewBox="0 0 512 512" version="1.1" xmlns="http://www.w3.org/2000/svg" xmlns:xlink="http://www.w3.org/1999/xlink">
    <defs>
        <radialGradient cx="0%" cy="0%" fx="0%" fy="0%" r="141.421356%" id="radialGradient-7x3e3wbm39-1">
            <stop stop-color="#6EE7B7" offset="0%"></stop>
            <stop stop-color="#0EA5E9" offset="51.6144012%"></stop>
            <stop stop-color="#7C3AED" offset="100%"></stop>
        </radialGradient>
    </defs>
    <g id="bookmark.style" stroke="none" stroke-width="1" fill="none" fill-rule="evenodd">
        <g id="logo" stroke="#FFFFFF">
            <g id="background" fill="url(#radialGradient-7x3e3wbm39-1)" stroke-opacity="0.6" stroke-width="32">
                <circle cx="256" cy="256" r="240"></circle>
            </g>
            <g id="B" transform="translate(151.615000, 118.270000)" fill="#FFFFFF" fill-rule="nonzero" stroke-width="16">
                <path d="M0,274.73 L0,0 L123.255,0 C144.835,0 161.919167,3.735 174.5075,11.205 C187.095833,18.675 196.156667,28.0125 201.69,39.2175 C207.223333,50.4225 209.99,61.5583333 209.99,72.625 C209.99,90.3316667 206.255,103.9575 198.785,113.5025 C191.315,123.0475 182.738333,130.033333 173.055,134.46 C180.801667,136.95 188.6175,140.8925 196.5025,146.2875 C204.3875,151.6825 210.958333,158.945 216.215,168.075 C221.471667,177.205 224.1,188.686667 224.1,202.52 C224.1,222.993333 216.284167,240.146667 200.6525,253.98 C185.020833,267.813333 161.573333,274.73 130.31,274.73 L0,274.73 Z M31.125,122.84 L123.255,122.84 C132.938333,122.84 141.999167,121.18 150.4375,117.86 C158.875833,114.54 165.723333,109.3525 170.98,102.2975 C176.236667,95.2425 178.865,86.1816667 178.865,75.115 C178.865,67.3683333 177.135833,60.0366667 173.6775,53.12 C170.219167,46.2033333 164.685833,40.5316667 157.0775,36.105 C149.469167,31.6783333 139.301667,29.465 126.575,29.465 L31.125,29.465 L31.125,122.84 Z M31.125,245.265 L133.63,245.265 C152.443333,245.265 167.0375,241.3225 177.4125,233.4375 C187.7875,225.5525 192.975,214.416667 192.975,200.03 C192.975,187.026667 187.995,175.614167 178.035,165.7925 C168.075,155.970833 152.166667,151.06 130.31,151.06 L31.125,151.06 L31.125,245.265 Z" id="形状"></path>
            </g>
        </g>
    </g>
</svg>